<?xml version="1.0" encoding="UTF-8"?><svg id="photopizza_v7_700mm" xmlns="http://www.w3.org/2000/svg" viewBox="0 0 4748.14 2383.07"><defs><style>.cls-1{stroke:#2b2a29;stroke-miterlimit:22.93;}.cls-1,.cls-2{fill:none;fill-rule:evenodd;stroke-width:.22px;}.cls-2{stroke:red;stroke-miterlimit:2.61;}</style></defs><path id="base" class="cls-2" d="M314.46,1747.39c1.65,6.17-2.04,12.58-8.22,14.23-6.17,1.65-12.58-2.05-14.23-8.22-1.65-6.17,2.05-12.58,8.22-14.23,6.17-1.65,12.58,2.05,14.23,8.22ZM758.96,2004.02c-6.17,1.65-9.87,8.06-8.22,14.23,1.65,6.17,8.06,9.87,14.23,8.22,6.17-1.65,9.87-8.06,8.22-14.23-1.65-6.17-8.06-9.87-14.23-8.22ZM1288.66,2004.02c-6.17,1.65-9.87,8.06-8.22,14.23,1.65,6.17,8.06,9.87,14.23,8.22,6.17-1.65,9.87-8.06,8.22-14.23-1.65-6.17-8.06-9.87-14.23-8.22ZM1747.4,1739.17c-6.17,1.65-9.87,8.06-8.22,14.23,1.65,6.17,8.06,9.87,14.23,8.22,6.17-1.65,9.87-8.06,8.22-14.23-1.65-6.17-8.06-9.87-14.23-8.22ZM2012.25,1280.44c-6.17,1.65-9.87,8.06-8.22,14.23,1.65,6.17,8.06,9.87,14.23,8.22,6.17-1.65,9.87-8.06,8.22-14.23-1.65-6.17-8.06-9.87-14.23-8.22ZM2012.25,750.73c-6.17,1.65-9.87,8.06-8.22,14.23,1.65,6.17,8.06,9.87,14.23,8.22,6.17-1.65,9.87-8.06,8.22-14.23-1.65-6.17-8.06-9.87-14.23-8.22ZM1747.4,292c-6.17,1.65-9.87,8.06-8.22,14.23,1.65,6.17,8.06,9.87,14.23,8.22,6.17-1.65,9.87-8.06,8.22-14.23-1.65-6.17-8.06-9.87-14.23-8.22ZM1288.66,27.15c-6.17,1.65-9.87,8.06-8.22,14.23,1.65,6.17,8.06,9.87,14.23,8.22,6.17-1.65,9.87-8.06,8.22-14.23-1.65-6.17-8.06-9.87-14.23-8.22ZM758.96,27.15c-6.17,1.65-9.87,8.06-8.22,14.23,1.65,6.17,8.06,9.87,14.23,8.22,6.17-1.65,9.87-8.06,8.22-14.23-1.65-6.17-8.06-9.87-14.23-8.22ZM300.22,292c-6.17,1.65-9.87,8.06-8.22,14.23,1.65,6.17,8.06,9.87,14.23,8.22,6.17-1.65,9.87-8.06,8.22-14.23-1.65-6.17-8.06-9.87-14.23-8.22ZM35.37,750.73c-6.17,1.65-9.87,8.06-8.22,14.23,1.65,6.17,8.06,9.87,14.23,8.22,6.17-1.65,9.87-8.06,8.22-14.23-1.65-6.17-8.06-9.87-14.23-8.22ZM1015.34,1026.81c0,6.34,5.14,11.48,11.48,11.48s11.48-5.14,11.48-11.48-5.14-11.48-11.48-11.48-11.48,5.14-11.48,11.48ZM35.37,1280.44c-6.17,1.65-9.87,8.06-8.22,14.23,1.65,6.17,8.06,9.87,14.23,8.22,6.17-1.65,9.87-8.06,8.22-14.23-1.65-6.17-8.06-9.87-14.23-8.22ZM1062.03,1675.31c4.85,0,8.79-3.93,8.79-8.79s-3.93-8.79-8.79-8.79-8.79,3.93-8.79,8.79,3.93,8.79,8.79,8.79ZM1062.03,1716.47c4.85,0,8.79-3.93,8.79-8.79s-3.93-8.79-8.79-8.79-8.79,3.93-8.79,8.79,3.93,8.79,8.79,8.79ZM993.03,1675.31c4.85,0,8.79-3.93,8.79-8.79s-3.93-8.79-8.79-8.79-8.79,3.93-8.79,8.79,3.93,8.79,8.79,8.79ZM993.03,1716.47c4.85,0,8.79-3.93,8.79-8.79s-3.93-8.79-8.79-8.79-8.79,3.93-8.79,8.79,3.93,8.79,8.79,8.79ZM1027.53,1937.67c4.83,0,8.79-3.95,8.79-8.79v-41.69c0-4.83-3.95-8.79-8.79-8.79s-8.79,3.95-8.79,8.79v41.69c0,4.83,3.95,8.79,8.79,8.79ZM785.58,2045.37h169.28,0c5.11-.03,10.87-1.66,10.94-11.1v-60.23c0-6.04,4.73-8.5,10.07-8.5h103.32c4.68,0,8.5,3.83,8.5,8.5v60.23c.08,12.51,11.05,10.93,11.08,11.1h169.28c9.15,7.16,21.43,10.08,33.52,6.85,12.08-3.24,21.26-11.91,25.6-22.69l417.84-241.24c11.5,1.63,23.6-1.98,32.45-10.83,8.85-8.85,12.46-20.95,10.83-32.45l241.24-417.84c10.77-4.34,19.45-13.52,22.69-25.6,3.24-12.08.31-24.37-6.85-33.52v-482.48c7.15-9.15,10.08-21.43,6.84-33.51-3.24-12.08-11.9-21.25-22.67-25.6l-241.25-417.86c1.62-11.5-1.99-23.59-10.83-32.43s-20.93-12.45-32.43-10.83L1327.16,24.09c-4.35-10.76-13.52-19.43-25.59-22.67-12.08-3.24-24.35-.32-33.5,6.83h-482.51c-9.15-7.15-21.42-10.07-33.5-6.83-12.08,3.24-21.25,11.9-25.59,22.67l-417.87,241.26c-11.5-1.62-23.59,1.99-32.43,10.83s-12.45,20.93-10.83,32.43L24.09,726.47c-10.77,4.34-19.43,13.52-22.67,25.59-3.24,12.08-.31,24.36,6.84,33.51v482.5c-7.15,9.15-10.08,21.43-6.84,33.51,3.24,12.08,11.91,21.26,22.68,25.6l241.24,417.85c-1.62,11.5,1.98,23.6,10.83,32.44,8.85,8.85,20.95,12.46,32.45,10.83l417.84,241.24c4.34,10.77,13.52,19.45,25.6,22.69,12.09,3.24,24.37.31,33.52-6.85h0ZM1524.92,1058.86c0-3.6,2.92-6.52,6.52-6.52,3.6,0,6.52,2.92,6.52,6.52,0,3.6-2.92,6.52-6.52,6.52-3.6,0-6.52-2.92-6.52-6.52h0ZM1524.93,994.54c0-3.6,2.92-6.52,6.52-6.52,3.6,0,6.52,2.92,6.52,6.52s-2.92,6.52-6.52,6.52c-3.6,0-6.52-2.92-6.52-6.52h0ZM1518.4,1016.66l3.49,3.52h19.1s3.49-3.52,3.49-3.52v-8.5s2.15-2.15,2.15-2.15h11.65s3.5-3.52,3.5-3.52v-8.51s2.15-2.15,2.15-2.15h22.91s2.15,2.15,2.15,2.15v8.51s3.49,3.52,3.49,3.52h11.65s2.15,2.15,2.15,2.15v8.51s3.5,3.52,3.5,3.52h22.42s2.15,2.15,2.15,2.15v8.74s-2.15,2.15-2.15,2.15h-22.42s-3.5,3.52-3.5,3.52v8.5s-2.15,2.15-2.15,2.15h-11.65l-3.49,3.52v8.51s-2.15,2.15-2.15,2.15h-22.91s-2.15-2.15-2.15-2.15v-8.51l-3.5-3.52h-11.65s-2.15-2.15-2.15-2.15v-8.51s-3.49-3.52-3.49-3.52h-19.1l-3.5,3.52v8.5l-2.15,2.15h-12.14s-2.15-2.15-2.15-2.15v-37.09s2.15-2.15,2.15-2.15h12.14s2.15,2.15,2.15,2.15v8.51h0ZM1474.33,805.72c-1.8-3.12-.73-7.11,2.39-8.91,3.12-1.8,7.11-.73,8.91,2.39,1.8,3.12.73,7.11-2.39,8.91-3.12,1.8-7.11.73-8.91-2.39h0ZM1442.17,750.02c-1.8-3.12-.73-7.11,2.39-8.91,3.12-1.8,7.11-.73,8.91,2.39,1.8,3.12.73,7.11-2.39,8.91-3.12,1.8-7.11.73-8.91-2.39h0ZM1447.58,772.44l4.78,1.3,16.54-9.55,1.27-4.79-4.25-7.37.79-2.94,10.09-5.82,1.27-4.79-4.25-7.37.79-2.94,19.84-11.46,2.94.79,4.25,7.37,4.79,1.3,10.09-5.82,2.94.79,4.25,7.37,4.79,1.3,19.41-11.21,2.94.79,4.37,7.57-.79,2.94-19.41,11.21-1.27,4.79,4.25,7.37-.79,2.94-10.09,5.82-1.27,4.79,4.25,7.37-.79,2.94-19.84,11.46-2.94-.79-4.25-7.37-4.79-1.3-10.09,5.82-2.94-.79-4.25-7.37-4.78-1.3-16.54,9.55-1.27,4.8,4.25,7.36-.79,2.94-10.51,6.07-2.94-.79-18.54-32.12.79-2.94,10.51-6.07,2.94.79,4.25,7.37h0ZM1303.94,611.79c-3.12-1.8-4.19-5.79-2.39-8.91,1.8-3.12,5.79-4.19,8.91-2.39,3.12,1.8,4.19,5.79,2.39,8.91-1.8,3.12-5.79,4.19-8.91,2.39h0ZM1248.24,579.64c-3.12-1.8-4.19-5.79-2.39-8.91,1.8-3.12,5.79-4.19,8.91-2.39,3.12,1.8,4.19,5.79,2.39,8.91s-5.79,4.19-8.91,2.39h0ZM1264.13,596.34l4.79-1.26,9.55-16.54-1.3-4.79-7.36-4.25-.79-2.94,5.82-10.08-1.3-4.79-7.37-4.25-.79-2.94,11.46-19.84,2.94-.79,7.37,4.25,4.79-1.27,5.82-10.09,2.94-.79,7.37,4.25,4.79-1.27,11.21-19.41,2.94-.79,7.57,4.37.79,2.94-11.21,19.41,1.3,4.79,7.37,4.25.79,2.94-5.82,10.09,1.3,4.79,7.37,4.25.79,2.94-11.46,19.84-2.94.79-7.37-4.25-4.79,1.27-5.82,10.09-2.94.79-7.37-4.25-4.79,1.26-9.55,16.54,1.3,4.79,7.36,4.25.79,2.94-6.07,10.51-2.94.79-32.12-18.54-.79-2.94,6.07-10.51,2.94-.79,7.37,4.25h0ZM1059.41,529.04c-3.6,0-6.52-2.92-6.52-6.52,0-3.6,2.92-6.52,6.52-6.52,3.6,0,6.52,2.92,6.52,6.52,0,3.6-2.92,6.52-6.52,6.52h0ZM995.1,529.04c-3.6,0-6.52-2.92-6.52-6.52,0-3.6,2.92-6.52,6.52-6.52,3.6,0,6.52,2.92,6.52,6.52,0,3.6-2.92,6.52-6.52,6.52h0ZM1017.22,535.57l3.52-3.49v-19.1s-3.52-3.5-3.52-3.5h-8.5s-2.15-2.15-2.15-2.15v-11.65s-3.52-3.5-3.52-3.5h-8.51s-2.15-2.15-2.15-2.15v-22.91s2.15-2.15,2.15-2.15h8.51s3.52-3.49,3.52-3.49v-11.65s2.15-2.15,2.15-2.15h8.51s3.52-3.5,3.52-3.5v-22.42s2.15-2.15,2.15-2.15h8.74s2.15,2.15,2.15,2.15v22.42s3.52,3.5,3.52,3.5h8.5s2.15,2.15,2.15,2.15v11.65l3.52,3.49h8.51s2.15,2.15,2.15,2.15v22.91s-2.15,2.15-2.15,2.15h-8.51l-3.52,3.5v11.65s-2.15,2.15-2.15,2.15h-8.5s-3.52,3.49-3.52,3.49v19.1s3.52,3.5,3.52,3.5h8.5l2.15,2.15v12.14s-2.15,2.15-2.15,2.15h-37.09s-2.15-2.15-2.15-2.15v-12.14s2.15-2.15,2.15-2.15h8.51ZM806.27,579.64c-3.12,1.8-7.11.73-8.91-2.39-1.8-3.12-.73-7.11,2.39-8.91,3.12-1.8,7.11-.73,8.91,2.39,1.8,3.12.73,7.11-2.39,8.91h0ZM750.57,611.8c-3.12,1.8-7.11.73-8.91-2.39-1.8-3.12-.73-7.11,2.39-8.91,3.12-1.8,7.11-.73,8.91,2.39,1.8,3.12.73,7.11-2.39,8.91h0ZM772.99,606.39l1.3-4.78-9.55-16.54-4.79-1.27-7.36,4.25-2.94-.79-5.82-10.09-4.79-1.27-7.37,4.25-2.94-.79-11.46-19.84.79-2.94,7.37-4.25,1.3-4.79-5.82-10.09.79-2.94,7.37-4.25,1.3-4.79-11.21-19.41.79-2.94,7.57-4.37,2.94.79,11.21,19.41,4.79,1.27,7.37-4.25,2.94.79,5.82,10.09,4.79,1.27,7.37-4.25,2.94.79,11.46,19.84-.79,2.94-7.37,4.25-1.3,4.79,5.82,10.09-.79,2.94-7.36,4.25-1.3,4.78,9.55,16.54,4.8,1.27,7.36-4.25,2.94.79,6.07,10.51-.79,2.94-32.12,18.54-2.94-.79-6.07-10.51.79-2.94,7.37-4.25h0ZM612.35,750.03c-1.8,3.12-5.79,4.19-8.91,2.39-3.12-1.8-4.19-5.79-2.39-8.91,1.8-3.12,5.79-4.19,8.91-2.39,3.12,1.8,4.19,5.79,2.39,8.91h0ZM580.19,805.73c-1.8,3.12-5.79,4.19-8.91,2.39-3.12-1.8-4.19-5.79-2.39-8.91,1.8-3.12,5.79-4.19,8.91-2.39s4.19,5.79,2.39,8.91h0ZM596.9,789.84l-1.26-4.79-16.54-9.55-4.79,1.3-4.25,7.36-2.94.79-10.08-5.82-4.79,1.3-4.25,7.37-2.94.79-19.84-11.46-.79-2.94,4.25-7.37-1.27-4.79-10.09-5.82-.79-2.94,4.25-7.37-1.27-4.79-19.41-11.21-.79-2.94,4.37-7.57,2.94-.79,19.41,11.21,4.79-1.3,4.25-7.37,2.94-.79,10.09,5.82,4.79-1.3,4.25-7.37,2.94-.79,19.84,11.46.79,2.94-4.25,7.37,1.27,4.79,10.09,5.82.79,2.94-4.25,7.37,1.26,4.79,16.54,9.55,4.79-1.3,4.25-7.36,2.94-.79,10.51,6.07.79,2.94-18.54,32.12-2.94.79-10.51-6.07-.79-2.94,4.25-7.37h0ZM529.6,994.56c0,3.6-2.92,6.52-6.52,6.52-3.6,0-6.52-2.92-6.52-6.52,0-3.6,2.92-6.52,6.52-6.52,3.6,0,6.52,2.92,6.52,6.52h0ZM529.6,1058.87c0,3.6-2.92,6.52-6.52,6.52-3.6,0-6.52-2.92-6.52-6.52,0-3.6,2.92-6.52,6.52-6.52,3.6,0,6.52,2.92,6.52,6.52h0ZM536.12,1036.75l-3.49-3.52h-19.1s-3.5,3.52-3.5,3.52v8.5s-2.15,2.15-2.15,2.15h-11.65s-3.5,3.52-3.5,3.52v8.51s-2.15,2.15-2.15,2.15h-22.91s-2.15-2.15-2.15-2.15v-8.51s-3.49-3.52-3.49-3.52h-11.65s-2.15-2.15-2.15-2.15v-8.5s-3.5-3.52-3.5-3.52h-22.42s-2.15-2.15-2.15-2.15v-8.74s2.15-2.15,2.15-2.15h22.42s3.5-3.52,3.5-3.52v-8.5s2.15-2.15,2.15-2.15h11.65l3.49-3.52v-8.51s2.15-2.15,2.15-2.15h22.91s2.15,2.15,2.15,2.15v8.51l3.5,3.52h11.65s2.15,2.15,2.15,2.15v8.5s3.49,3.52,3.49,3.52h19.1s3.5-3.52,3.5-3.52v-8.5l2.15-2.15h12.14s2.15,2.15,2.15,2.15v37.09s-2.15,2.15-2.15,2.15h-12.14s-2.15-2.15-2.15-2.15v-8.51h0ZM580.2,1247.7c1.8,3.12.73,7.11-2.39,8.91-3.12,1.8-7.11.73-8.91-2.39-1.8-3.12-.73-7.11,2.39-8.91,3.12-1.8,7.11-.73,8.91,2.39h0ZM612.35,1303.4c1.8,3.12.73,7.11-2.39,8.91-3.12,1.8-7.11.73-8.91-2.39-1.8-3.12-.73-7.11,2.39-8.91,3.12-1.8,7.11-.73,8.91,2.39h0ZM606.94,1280.98l-4.78-1.3-16.54,9.55-1.27,4.79,4.25,7.36-.79,2.94-10.09,5.82-1.27,4.79,4.25,7.37-.79,2.94-19.84,11.46-2.94-.79-4.25-7.37-4.79-1.3-10.09,5.82-2.94-.79-4.25-7.37-4.79-1.3-19.41,11.21-2.94-.79-4.37-7.57.79-2.94,19.41-11.21,1.27-4.79-4.25-7.37.79-2.94,10.09-5.82,1.27-4.79-4.25-7.37.79-2.94,19.84-11.46,2.94.79,4.25,7.37,4.79,1.3,10.09-5.82,2.94.79,4.25,7.36,4.78,1.3,16.54-9.55,1.27-4.8-4.25-7.36.79-2.94,10.51-6.07,2.94.79,18.54,32.12-.79,2.94-10.51,6.07-2.94-.79-4.25-7.37h0ZM750.59,1441.62c3.12,1.8,4.19,5.79,2.39,8.91-1.8,3.12-5.79,4.19-8.91,2.39-3.12-1.8-4.19-5.79-2.39-8.91,1.8-3.12,5.79-4.19,8.91-2.39h0ZM806.28,1473.78c3.12,1.8,4.19,5.79,2.39,8.91-1.8,3.12-5.79,4.19-8.91,2.39-3.12-1.8-4.19-5.79-2.39-8.91,1.8-3.12,5.79-4.19,8.91-2.39h0ZM790.39,1457.07l-4.79,1.26-9.55,16.54,1.3,4.79,7.36,4.25.79,2.94-5.82,10.08,1.3,4.79,7.37,4.25.79,2.94-11.46,19.84-2.94.79-7.37-4.25-4.79,1.27-5.82,10.09-2.94.79-7.37-4.25-4.79,1.27-11.21,19.41-2.94.79-7.57-4.37-.79-2.94,11.21-19.41-1.3-4.79-7.37-4.25-.79-2.94,5.82-10.09-1.3-4.79-7.37-4.25-.79-2.94,11.46-19.84,2.94-.79,7.37,4.25,4.79-1.27,5.82-10.09,2.94-.79,7.37,4.25,4.79-1.26,9.55-16.54-1.3-4.79-7.36-4.25-.79-2.94,6.07-10.51,2.94-.79,32.12,18.54.79,2.94-6.07,10.51-2.94.79-7.37-4.25h0ZM995.11,1524.37c3.6,0,6.52,2.92,6.52,6.52,0,3.6-2.92,6.52-6.52,6.52-3.6,0-6.52-2.92-6.52-6.52,0-3.6,2.92-6.52,6.52-6.52h0ZM1059.43,1524.37c3.6,0,6.52,2.92,6.52,6.52,0,3.6-2.92,6.52-6.52,6.52-3.6,0-6.52-2.92-6.52-6.52,0-3.6,2.92-6.52,6.52-6.52h0ZM1037.31,1517.85l-3.52,3.49v19.1s3.52,3.5,3.52,3.5h8.5s2.15,2.15,2.15,2.15v11.64s3.52,3.5,3.52,3.5h8.51s2.15,2.15,2.15,2.15v22.91s-2.15,2.15-2.15,2.15h-8.51s-3.52,3.49-3.52,3.49v11.65s-2.15,2.15-2.15,2.15h-8.51s-3.52,3.5-3.52,3.5v22.42s-2.15,2.15-2.15,2.15h-8.74s-2.15-2.15-2.15-2.15v-22.42s-3.52-3.5-3.52-3.5h-8.5s-2.15-2.15-2.15-2.15v-11.65l-3.52-3.49h-8.51s-2.15-2.15-2.15-2.15v-22.91s2.15-2.15,2.15-2.15h8.51l3.52-3.5v-11.65s2.15-2.15,2.15-2.15h8.5s3.52-3.49,3.52-3.49v-19.1s-3.52-3.5-3.52-3.5h-8.5l-2.15-2.15v-12.14s2.15-2.15,2.15-2.15h37.09s2.15,2.15,2.15,2.15v12.14s-2.15,2.15-2.15,2.15h-8.51ZM1248.25,1473.77c3.12-1.8,7.11-.73,8.91,2.39,1.8,3.12.73,7.1-2.39,8.91-3.12,1.8-7.11.73-8.91-2.39-1.8-3.12-.73-7.11,2.39-8.91h0ZM1303.95,1441.62c3.12-1.8,7.11-.73,8.91,2.39,1.8,3.12.73,7.11-2.39,8.91-3.12,1.8-7.11.73-8.91-2.39-1.8-3.12-.73-7.11,2.39-8.91h0ZM1281.53,1447.03l-1.3,4.78,9.55,16.54,4.79,1.27,7.36-4.25,2.94.79,5.82,10.09,4.79,1.27,7.37-4.25,2.94.79,11.46,19.84-.79,2.94-7.37,4.25-1.3,4.79,5.82,10.09-.79,2.94-7.37,4.25-1.3,4.79,11.21,19.41-.79,2.94-7.57,4.37-2.94-.79-11.21-19.41-4.79-1.27-7.37,4.25-2.94-.79-5.82-10.09-4.79-1.27-7.37,4.25-2.94-.79-11.46-19.84.79-2.94,7.37-4.25,1.3-4.79-5.82-10.09.79-2.94,7.37-4.25,1.3-4.78-9.55-16.54-4.8-1.27-7.36,4.25-2.94-.79-6.07-10.51.79-2.94,32.12-18.54,2.94.79,6.07,10.51-.79,2.94-7.37,4.25h0ZM1224.55,1887.24c3.48-.93,7.05,1.13,7.98,4.61.93,3.48-1.13,7.05-4.61,7.98-3.48.93-7.05-1.13-7.98-4.61-.93-3.48,1.13-7.05,4.61-7.98h0ZM1286.67,1870.6c3.48-.93,7.05,1.13,7.99,4.61.93,3.48-1.13,7.05-4.61,7.99-3.48.93-7.05-1.13-7.98-4.61-.93-3.48,1.13-7.05,4.61-7.98h0ZM1263.62,1870.03l-2.49,4.28,4.94,18.44,4.3,2.47,8.21-2.2,2.63,1.52,3.01,11.25,4.3,2.47,8.22-2.2,2.63,1.52,5.93,22.13-1.52,2.63-8.22,2.2-2.49,4.29,3.01,11.25-1.52,2.63-8.21,2.2-2.49,4.29,5.8,21.65-1.52,2.63-8.44,2.26-2.63-1.52-5.8-21.65-4.3-2.47-8.22,2.2-2.63-1.52-3.01-11.25-4.3-2.47-8.22,2.2-2.63-1.52-5.93-22.13,1.52-2.63,8.22-2.2,2.49-4.29-3.01-11.25,1.52-2.63,8.22-2.2,2.5-4.28-4.94-18.45-4.3-2.47-8.21,2.2-2.63-1.52-3.14-11.73,1.52-2.63,35.82-9.6,2.63,1.52,3.14,11.73-1.52,2.63-8.22,2.2h0ZM1628.39,1673.31c2.55-2.55,6.67-2.55,9.22,0,2.55,2.55,2.55,6.67,0,9.22-2.55,2.55-6.67,2.55-9.22,0-2.55-2.55-2.55-6.67,0-9.22h0ZM1673.86,1627.83c2.55-2.55,6.67-2.55,9.22,0,2.55,2.55,2.55,6.67,0,9.22-2.55,2.55-6.67,2.54-9.22,0-2.55-2.55-2.55-6.67,0-9.22h0ZM1653.61,1638.86l-.02,4.95,13.5,13.5,4.96-.02,6.01-6.01h3.04s8.23,8.23,8.23,8.23l4.96-.02,6.01-6.01h3.04s16.2,16.2,16.2,16.2v3.04s-6.02,6.01-6.02,6.01l-.02,4.96,8.23,8.24v3.04l-6.01,6.01-.02,4.96,15.85,15.85v3.04l-6.18,6.18h-3.04s-15.85-15.85-15.85-15.85l-4.96.02-6.01,6.01h-3.04s-8.24-8.24-8.24-8.24l-4.96.02-6.01,6.01h-3.04s-16.2-16.2-16.2-16.2v-3.04s6.01-6.01,6.01-6.01l.02-4.96-8.23-8.23v-3.04s6.01-6.01,6.01-6.01l.02-4.95-13.5-13.5-4.96.02-6.01,6.01h-3.04s-8.58-8.58-8.58-8.58v-3.04l26.22-26.22h3.04l8.58,8.58v3.04s-6.01,6.01-6.01,6.01h0ZM1871.15,1286.12c.93-3.48,4.51-5.54,7.98-4.61,3.48.93,5.54,4.51,4.61,7.98-.93,3.48-4.51,5.54-7.98,4.61-3.48-.93-5.54-4.51-4.61-7.98h0ZM1887.8,1224c.93-3.48,4.51-5.54,7.98-4.61,3.48.93,5.54,4.51,4.61,7.99-.93,3.48-4.51,5.54-7.99,4.61-3.48-.93-5.54-4.51-4.61-7.98h0ZM1875.78,1243.67l2.46,4.3,18.44,4.94,4.29-2.49,2.2-8.21,2.63-1.52,11.25,3.01,4.29-2.49,2.2-8.22,2.63-1.52,22.13,5.93,1.52,2.63-2.2,8.22,2.47,4.3,11.25,3.01,1.52,2.63-2.2,8.21,2.46,4.3,21.65,5.8,1.52,2.63-2.26,8.44-2.63,1.52-21.65-5.8-4.29,2.49-2.2,8.22-2.63,1.52-11.25-3.01-4.29,2.49-2.2,8.22-2.63,1.52-22.13-5.93-1.52-2.63,2.2-8.22-2.47-4.3-11.25-3.01-1.52-2.63,2.2-8.22-2.46-4.3-18.45-4.94-4.29,2.49-2.2,8.21-2.63,1.52-11.73-3.14-1.52-2.63,9.6-35.82,2.63-1.52,11.72,3.14,1.52,2.63-2.2,8.22h0ZM1887.8,829.42c-.93-3.48,1.13-7.05,4.61-7.98,3.48-.93,7.05,1.13,7.98,4.61.93,3.48-1.13,7.05-4.61,7.98-3.48.93-7.05-1.13-7.98-4.61h0ZM1871.16,767.3c-.93-3.48,1.13-7.05,4.61-7.99,3.48-.93,7.05,1.13,7.99,4.61.93,3.48-1.13,7.05-4.61,7.98-3.48.93-7.05-1.13-7.98-4.61h0ZM1870.58,790.35l4.28,2.49,18.44-4.94,2.47-4.3-2.2-8.21,1.52-2.63,11.25-3.01,2.47-4.3-2.2-8.22,1.52-2.63,22.13-5.93,2.63,1.52,2.2,8.22,4.29,2.49,11.25-3.01,2.63,1.52,2.2,8.21,4.29,2.49,21.65-5.8,2.63,1.52,2.26,8.44-1.52,2.63-21.65,5.8-2.47,4.3,2.2,8.22-1.52,2.63-11.25,3.01-2.47,4.3,2.2,8.22-1.52,2.63-22.13,5.93-2.63-1.52-2.2-8.22-4.29-2.49-11.25,3.01-2.63-1.52-2.2-8.22-4.28-2.5-18.45,4.94-2.47,4.3,2.2,8.22-1.52,2.63-11.73,3.14-2.63-1.52-9.6-35.82,1.52-2.63,11.73-3.14,2.63,1.52,2.2,8.22h0ZM1673.87,425.58c-2.55-2.55-2.55-6.67,0-9.22,2.55-2.55,6.67-2.55,9.22,0,2.55,2.55,2.55,6.67,0,9.22-2.55,2.55-6.67,2.55-9.22,0h0ZM1628.39,380.1c-2.55-2.55-2.55-6.67,0-9.22,2.55-2.55,6.67-2.55,9.22,0,2.55,2.55,2.55,6.67,0,9.22-2.55,2.55-6.67,2.55-9.22,0h0ZM1639.42,400.35l4.95.02,13.5-13.5-.02-4.96-6.01-6.01v-3.04l8.23-8.23-.02-4.96-6.01-6.01v-3.04s16.2-16.2,16.2-16.2h3.04s6.01,6.02,6.01,6.02l4.96.02,8.24-8.23h3.04l6.01,6.01,4.96.02,15.85-15.85h3.04s6.18,6.18,6.18,6.18v3.04s-15.85,15.85-15.85,15.85l.02,4.96,6.01,6.01v3.04s-8.23,8.24-8.23,8.24l.02,4.96,6.01,6.01v3.04s-16.2,16.2-16.2,16.2h-3.04s-6.01-6.01-6.01-6.01l-4.96-.02-8.23,8.23h-3.04s-6.01-6.01-6.01-6.01l-4.95-.02-13.5,13.5.02,4.96,6.01,6.01v3.04s-8.58,8.58-8.58,8.58h-3.04l-26.22-26.22v-3.04l8.58-8.58h3.04s6.01,6.01,6.01,6.01h0ZM1286.68,182.81c-3.48-.93-5.54-4.51-4.61-7.98.93-3.48,4.51-5.54,7.98-4.61,3.48.93,5.54,4.51,4.61,7.98-.93,3.48-4.51,5.54-7.98,4.61h0ZM1224.55,166.17c-3.48-.93-5.54-4.51-4.61-7.98.93-3.48,4.51-5.54,7.99-4.61,3.48.93,5.54,4.51,4.61,7.99-.93,3.48-4.51,5.54-7.98,4.61h0ZM1244.23,178.19l4.3-2.46,4.94-18.44-2.49-4.29-8.21-2.2-1.52-2.63,3.01-11.25-2.49-4.29-8.22-2.2-1.52-2.63,5.93-22.13,2.63-1.52,8.22,2.2,4.3-2.47,3.01-11.25,2.63-1.52,8.21,2.2,4.3-2.46,5.8-21.65,2.63-1.52,8.44,2.26,1.52,2.63-5.8,21.65,2.49,4.29,8.22,2.2,1.52,2.63-3.01,11.25,2.49,4.29,8.22,2.2,1.52,2.63-5.93,22.13-2.63,1.52-8.22-2.2-4.3,2.47-3.01,11.25-2.63,1.52-8.22-2.2-4.3,2.46-4.94,18.45,2.49,4.29,8.21,2.2,1.52,2.63-3.14,11.73-2.63,1.52-35.82-9.6-1.52-2.63,3.14-11.72,2.63-1.52,8.22,2.2h0ZM829.97,166.17c-3.48.93-7.05-1.13-7.98-4.61-.93-3.48,1.13-7.05,4.61-7.98,3.48-.93,7.05,1.13,7.98,4.61.93,3.48-1.13,7.05-4.61,7.98h0ZM767.85,182.81c-3.48.93-7.05-1.13-7.99-4.61-.93-3.48,1.13-7.05,4.61-7.99,3.48-.93,7.05,1.13,7.98,4.61.93,3.48-1.13,7.05-4.61,7.98h0ZM790.9,183.38l2.49-4.28-4.94-18.44-4.3-2.47-8.21,2.2-2.63-1.52-3.01-11.25-4.3-2.47-8.22,2.2-2.63-1.52-5.93-22.13,1.52-2.63,8.22-2.2,2.49-4.29-3.01-11.25,1.52-2.63,8.21-2.2,2.49-4.29-5.8-21.65,1.52-2.63,8.44-2.26,2.63,1.52,5.8,21.65,4.3,2.47,8.22-2.2,2.63,1.52,3.01,11.25,4.3,2.47,8.22-2.2,2.63,1.52,5.93,22.13-1.52,2.63-8.22,2.2-2.49,4.29,3.01,11.25-1.52,2.63-8.22,2.2-2.5,4.28,4.94,18.45,4.3,2.47,8.22-2.2,2.63,1.52,3.14,11.73-1.52,2.63-35.82,9.6-2.63-1.52-3.14-11.73,1.52-2.63,8.22-2.2h0ZM426.14,380.1c-2.55,2.55-6.67,2.55-9.22,0-2.55-2.55-2.55-6.67,0-9.22,2.55-2.55,6.67-2.55,9.22,0,2.55,2.55,2.55,6.67,0,9.22h0ZM380.66,425.58c-2.55,2.55-6.67,2.55-9.22,0-2.55-2.55-2.55-6.67,0-9.22,2.55-2.55,6.67-2.55,9.22,0,2.55,2.55,2.55,6.67,0,9.22h0ZM400.91,414.55l.02-4.95-13.5-13.5-4.96.02-6.01,6.01h-3.04l-8.23-8.23-4.96.02-6.01,6.01h-3.04s-16.2-16.2-16.2-16.2v-3.04s6.02-6.01,6.02-6.01l.02-4.96-8.23-8.24v-3.04l6.01-6.01.02-4.96-15.85-15.85v-3.04s6.18-6.18,6.18-6.18h3.04s15.85,15.85,15.85,15.85l4.96-.02,6.01-6.01h3.04s8.24,8.23,8.24,8.23l4.96-.02,6.01-6.01h3.04s16.2,16.2,16.2,16.2v3.04s-6.01,6.01-6.01,6.01l-.02,4.96,8.23,8.23v3.04s-6.01,6.01-6.01,6.01l-.02,4.95,13.5,13.5,4.96-.02,6.01-6.01h3.04s8.58,8.58,8.58,8.58v3.04l-26.22,26.22h-3.04l-8.58-8.58v-3.04s6.01-6.01,6.01-6.01h0ZM183.37,767.29c-.93,3.48-4.51,5.54-7.98,4.61-3.48-.93-5.54-4.51-4.61-7.98.93-3.48,4.51-5.54,7.98-4.61,3.48.93,5.54,4.51,4.61,7.98h0ZM166.72,829.41c-.93,3.48-4.51,5.54-7.98,4.61-3.48-.93-5.54-4.51-4.61-7.99.93-3.48,4.51-5.54,7.99-4.61,3.48.93,5.54,4.51,4.61,7.98h0ZM178.75,809.74l-2.46-4.3-18.44-4.94-4.29,2.49-2.2,8.21-2.63,1.52-11.25-3.01-4.29,2.49-2.2,8.22-2.63,1.52-22.13-5.93-1.52-2.63,2.2-8.22-2.47-4.3-11.25-3.01-1.52-2.63,2.2-8.21-2.46-4.3-21.65-5.8-1.52-2.63,2.26-8.44,2.63-1.52,21.65,5.8,4.29-2.49,2.2-8.22,2.63-1.52,11.25,3.01,4.29-2.49,2.2-8.22,2.63-1.52,22.13,5.93,1.52,2.63-2.2,8.22,2.47,4.3,11.25,3.01,1.52,2.63-2.2,8.22,2.46,4.3,18.45,4.94,4.29-2.49,2.2-8.21,2.63-1.52,11.73,3.14,1.52,2.63-9.6,35.82-2.63,1.52-11.73-3.14-1.52-2.63,2.2-8.22h0ZM166.72,1223.99c.93,3.48-1.13,7.05-4.61,7.98-3.48.93-7.05-1.13-7.98-4.61-.93-3.48,1.13-7.05,4.61-7.98,3.48-.93,7.05,1.13,7.98,4.61h0ZM183.37,1286.11c.93,3.48-1.13,7.05-4.61,7.99-3.48.93-7.05-1.13-7.99-4.61-.93-3.48,1.13-7.05,4.61-7.98,3.48-.93,7.05,1.13,7.98,4.61h0ZM183.94,1263.06l-4.28-2.49-18.44,4.94-2.47,4.3,2.2,8.21-1.52,2.63-11.25,3.01-2.47,4.3,2.2,8.22-1.52,2.63-22.13,5.93-2.63-1.52-2.2-8.22-4.29-2.49-11.25,3.01-2.63-1.52-2.2-8.21-4.29-2.49-21.65,5.8-2.63-1.52-2.26-8.44,1.52-2.63,21.65-5.8,2.47-4.3-2.2-8.22,1.52-2.63,11.25-3.01,2.47-4.3-2.2-8.22,1.52-2.63,22.13-5.93,2.63,1.52,2.2,8.22,4.29,2.49,11.25-3.01,2.63,1.52,2.2,8.22,4.28,2.5,18.45-4.94,2.47-4.3-2.2-8.22,1.52-2.63,11.73-3.14,2.63,1.52,9.6,35.82-1.52,2.63-11.73,3.14-2.63-1.52-2.2-8.22h0ZM380.66,1627.83c2.55,2.55,2.55,6.67,0,9.22-2.55,2.55-6.67,2.55-9.22,0-2.55-2.55-2.55-6.67,0-9.22,2.55-2.55,6.67-2.55,9.22,0h0ZM426.13,1673.31c2.55,2.55,2.55,6.67,0,9.22-2.55,2.55-6.67,2.55-9.22,0-2.55-2.55-2.55-6.67,0-9.22,2.55-2.55,6.67-2.55,9.22,0h0ZM415.1,1653.06l-4.95-.02-13.5,13.5.02,4.96,6.01,6.01v3.04l-8.23,8.23.02,4.96,6.01,6.01v3.04s-16.2,16.2-16.2,16.2h-3.04s-6.01-6.02-6.01-6.02l-4.96-.02-8.24,8.23h-3.04l-6.01-6.01-4.96-.02-15.85,15.85h-3.04s-6.18-6.18-6.18-6.18v-3.04s15.85-15.85,15.85-15.85l-.02-4.96-6.01-6.01v-3.04s8.23-8.24,8.23-8.24l-.02-4.96-6.01-6.01v-3.04s16.2-16.2,16.2-16.2h3.04s6.01,6.01,6.01,6.01l4.96.02,8.23-8.23h3.04s6.01,6.01,6.01,6.01l4.95.02,13.5-13.5-.02-4.96-6.01-6.01v-3.04s8.58-8.58,8.58-8.58h3.04l26.22,26.22v3.04l-8.58,8.58h-3.04s-6.01-6.01-6.01-6.01h0ZM767.85,1870.6c3.48.93,5.54,4.51,4.61,7.98-.93,3.48-4.51,5.54-7.98,4.61-3.48-.93-5.54-4.51-4.61-7.98.93-3.48,4.51-5.54,7.98-4.61h0ZM829.97,1887.24c3.48.93,5.54,4.51,4.61,7.98-.93,3.48-4.51,5.54-7.99,4.61-3.48-.93-5.54-4.51-4.61-7.99.93-3.48,4.51-5.54,7.98-4.61h0ZM810.29,1875.22l-4.3,2.46-4.94,18.44,2.49,4.29,8.21,2.2,1.52,2.63-3.01,11.25,2.49,4.29,8.22,2.2,1.52,2.63-5.93,22.13-2.63,1.52-8.22-2.2-4.3,2.47-3.01,11.25-2.63,1.52-8.21-2.2-4.3,2.46-5.8,21.65-2.63,1.52-8.44-2.26-1.52-2.63,5.8-21.65-2.49-4.29-8.22-2.2-1.52-2.63,3.01-11.25-2.49-4.29-8.22-2.2-1.52-2.63,5.93-22.13,2.63-1.52,8.22,2.2,4.3-2.47,3.01-11.25,2.63-1.52,8.22,2.2,4.3-2.46,4.94-18.45-2.49-4.29-8.21-2.2-1.52-2.63,3.14-11.73,2.63-1.52,35.82,9.6,1.52,2.63-3.14,11.73-2.63,1.52-8.22-2.2h0ZM1442.18,1303.38c1.8-3.12,5.79-4.19,8.91-2.39,3.12,1.8,4.19,5.79,2.39,8.91-1.8,3.12-5.79,4.19-8.91,2.39-3.12-1.8-4.19-5.79-2.39-8.91h0ZM1474.33,1247.69c1.8-3.12,5.79-4.19,8.91-2.39,3.12,1.8,4.19,5.79,2.39,8.91-1.8,3.12-5.79,4.19-8.91,2.39s-4.19-5.79-2.39-8.91h0ZM1457.63,1263.58l1.26,4.79,16.54,9.55,4.79-1.3,4.25-7.36,2.94-.79,10.08,5.82,4.79-1.3,4.25-7.37,2.94-.79,19.84,11.46.79,2.94-4.25,7.37,1.27,4.79,10.09,5.82.79,2.94-4.25,7.37,1.27,4.79,19.41,11.21.79,2.94-4.37,7.57-2.94.79-19.41-11.21-4.79,1.3-4.25,7.37-2.94.79-10.09-5.82-4.79,1.3-4.25,7.37-2.94.79-19.84-11.46-.79-2.94,4.25-7.37-1.27-4.79-10.09-5.82-.79-2.94,4.25-7.37-1.26-4.79-16.54-9.55-4.79,1.3-4.25,7.36-2.94.79-10.51-6.07-.79-2.94,18.54-32.12,2.94-.79,10.51,6.07.79,2.94-4.25,7.37Z"/><path id="platter" class="cls-2" d="M3755.91,1015.2c6.42,0,11.62,5.2,11.62,11.62s-5.2,11.62-11.62,11.62-11.62-5.2-11.62-11.62,5.2-11.62,11.62-11.62ZM3856.13,1141.21c7.81,0,14.17-6.37,14.17-14.17s-6.37-14.17-14.17-14.17-14.17,6.37-14.17,14.17,6.37,14.17,14.17,14.17ZM3856.13,940.77c7.81,0,14.17-6.37,14.17-14.17s-6.37-14.17-14.17-14.17-14.17,6.37-14.17,14.17,6.37,14.17,14.17,14.17ZM3655.69,940.77c7.81,0,14.17-6.37,14.17-14.17s-6.37-14.17-14.17-14.17-14.17,6.37-14.17,14.17,6.37,14.17,14.17,14.17ZM3655.69,1141.21c7.81,0,14.17-6.37,14.17-14.17s-6.37-14.17-14.17-14.17-14.17,6.37-14.17,14.17,6.37,14.17,14.17,14.17ZM4567.06,940.77c7.81,0,14.17-6.37,14.17-14.17s-6.37-14.17-14.17-14.17-14.17,6.37-14.17,14.17,6.37,14.17,14.17,14.17ZM4567.06,1141.21c7.81,0,14.17-6.37,14.17-14.17s-6.37-14.17-14.17-14.17-14.17,6.37-14.17,14.17,6.37,14.17,14.17,14.17ZM3856.13,1823.8c-7.83,0-14.17,6.35-14.17,14.17s6.35,14.17,14.17,14.17,14.17-6.35,14.17-14.17-6.35-14.17-14.17-14.17ZM3655.69,1823.8c-7.83,0-14.17,6.35-14.17,14.17s6.35,14.17,14.17,14.17,14.17-6.35,14.17-14.17-6.35-14.17-14.17-14.17ZM2958.93,1127.04c0-7.83-6.35-14.17-14.17-14.17s-14.17,6.35-14.17,14.17,6.35,14.17,14.17,14.17,14.17-6.35,14.17-14.17ZM2958.93,926.6c0-7.83-6.35-14.17-14.17-14.17s-14.17,6.35-14.17,14.17,6.35,14.17,14.17,14.17,14.17-6.35,14.17-14.17ZM3655.69,229.84c7.83,0,14.17-6.35,14.17-14.17s-6.35-14.17-14.17-14.17-14.17,6.35-14.17,14.17,6.35,14.17,14.17,14.17ZM3856.13,229.84c7.83,0,14.17-6.35,14.17-14.17s-6.35-14.17-14.17-14.17-14.17,6.35-14.17,14.17,6.35,14.17,14.17,14.17ZM3755.91,34.69c-547.94,0-992.13,444.19-992.13,992.13s444.19,992.13,992.13,992.13,992.13-444.19,992.13-992.13S4303.84,34.69,3755.91,34.69Z"/><path id="carraige" class="cls-1" d="M1019.53,2192.04c0-4.85,3.93-8.79,8.79-8.79s8.79,3.93,8.79,8.79-3.93,8.79-8.79,8.79-8.79-3.93-8.79-8.79h0ZM1072.25,2284.17c-2.58,0-4.68-2.09-4.68-4.68s2.09-4.68,4.68-4.68,4.68,2.09,4.68,4.68-2.09,4.68-4.68,4.68h0ZM984.38,2372.04c2.58,0,4.68-2.09,4.68-4.68s-2.09-4.68-4.68-4.68-4.68,2.09-4.68,4.68,2.09,4.68,4.68,4.68h0ZM984.38,2284.17c2.58,0,4.68-2.09,4.68-4.68s-2.09-4.68-4.68-4.68-4.68,2.09-4.68,4.68,2.09,4.68,4.68,4.68h0ZM1028.31,2276.66c25.83,0,46.77,20.94,46.77,46.77,0,25.83-20.94,46.77-46.77,46.77h0c-25.83,0-46.77-20.94-46.77-46.77,0-25.83,20.94-46.77,46.77-46.77h0ZM1072.25,2372.04c-2.58,0-4.68-2.09-4.68-4.68s2.09-4.68,4.68-4.68,4.68,2.09,4.68,4.68-2.09,4.68-4.68,4.68h0ZM1089.26,2221.06l-34.31-27.51c.03-.5.04-1,.04-1.51,0-14.73-11.94-26.67-26.67-26.67s-26.67,11.94-26.67,26.67c0,.44.01.88.03,1.32l-34.3,27.7c-8.48,0-15.43,6.94-15.43,15.43v126.16c0,12.12,9.19,20.3,17.68,20.3h117.39c8.48,0,17.68-8.18,17.68-20.3v-126.16c0-8.48-6.94-15.43-15.43-15.43Z"/></svg>